<svg width="18" height="18" viewBox="0 0 18 18" fill="none" xmlns="http://www.w3.org/2000/svg">
<path id="icon" d="M9 10.26L11.61 12.87C11.775 13.035 11.985 13.1175 12.24 13.1175C12.495 13.1175 12.705 13.035 12.87 12.87C13.035 12.705 13.1175 12.495 13.1175 12.24C13.1175 11.985 13.035 11.775 12.87 11.61L10.26 9L12.87 6.39C13.035 6.225 13.1175 6.015 13.1175 5.76C13.1175 5.505 13.035 5.295 12.87 5.13C12.705 4.965 12.495 4.8825 12.24 4.8825C11.985 4.8825 11.775 4.965 11.61 5.13L9 7.74L6.39 5.13C6.225 4.965 6.015 4.8825 5.76 4.8825C5.505 4.8825 5.295 4.965 5.13 5.13C4.965 5.295 4.8825 5.505 4.8825 5.76C4.8825 6.015 4.965 6.225 5.13 6.39L7.74 9L5.13 11.61C4.965 11.775 4.8825 11.985 4.8825 12.24C4.8825 12.495 4.965 12.705 5.13 12.87C5.295 13.035 5.505 13.1175 5.76 13.1175C6.015 13.1175 6.225 13.035 6.39 12.87L9 10.26ZM9 18C7.755 18 6.585 17.7636 5.49 17.2908C4.395 16.818 3.4425 16.1769 2.6325 15.3675C1.8225 14.5575 1.1814 13.605 0.7092 12.51C0.237 11.415 0.0006 10.245 0 9C0 7.755 0.2364 6.585 0.7092 5.49C1.182 4.395 1.8231 3.4425 2.6325 2.6325C3.4425 1.8225 4.395 1.1814 5.49 0.7092C6.585 0.237 7.755 0.0006 9 0C10.245 0 11.415 0.2364 12.51 0.7092C13.605 1.182 14.5575 1.8231 15.3675 2.6325C16.1775 3.4425 16.8189 4.395 17.2917 5.49C17.7645 6.585 18.0006 7.755 18 9C18 10.245 17.7636 11.415 17.2908 12.51C16.818 13.605 16.1769 14.5575 15.3675 15.3675C14.5575 16.1775 13.605 16.8189 12.51 17.2917C11.415 17.7645 10.245 18.0006 9 18ZM9 16.2C11.01 16.2 12.7125 15.5025 14.1075 14.1075C15.5025 12.7125 16.2 11.01 16.2 9C16.2 6.99 15.5025 5.2875 14.1075 3.8925C12.7125 2.4975 11.01 1.8 9 1.8C6.99 1.8 5.2875 2.4975 3.8925 3.8925C2.4975 5.2875 1.8 6.99 1.8 9C1.8 11.01 2.4975 12.7125 3.8925 14.1075C5.2875 15.5025 6.99 16.2 9 16.2Z" fill="white"/>
</svg>
