<svg xmlns="http://www.w3.org/2000/svg" viewBox="0 0 64 63.98">
  <g>
    <path
      d="M32.01,63.98c-3.78,0-7.55-.66-11.1-1.97-6.43-2.38-12.02-6.85-15.75-12.6C1.42,43.66-.38,36.72,.07,29.89S3.22,16.41,7.67,11.2,18.26,2.29,24.95,.78C31.63-.73,38.76-.03,45.02,2.76c1.26,.56,1.83,2.04,1.27,3.3-.56,1.26-2.04,1.83-3.3,1.27-5.28-2.35-11.3-2.95-16.94-1.67-5.64,1.27-10.82,4.4-14.57,8.79-3.76,4.4-6.04,10-6.42,15.77s1.14,11.62,4.29,16.47,7.87,8.63,13.29,10.63c5.43,2,11.47,2.2,17.01,.56,5.55-1.64,10.51-5.09,13.97-9.73,3.46-4.63,5.37-10.37,5.38-16.15v-2.71c0-1.38,1.12-2.5,2.5-2.5s2.5,1.12,2.5,2.5v2.71c0,6.86-2.27,13.65-6.37,19.14-4.1,5.49-9.98,9.58-16.56,11.53-2.94,.87-6,1.3-9.06,1.3Zm-.01-23.54c-.66,0-1.3-.26-1.77-.73l-8.85-8.85c-.98-.98-.98-2.56,0-3.54,.98-.98,2.56-.98,3.54,0l7.08,7.08L59.73,6.64c.98-.98,2.56-.98,3.54,0,.98,.98,.98,2.56,0,3.54l-29.5,29.53c-.47,.47-1.1,.73-1.77,.73h0Z" />
  </g>
</svg>