<svg width="16" height="16" viewBox="0 0 16 16" fill="none" xmlns="http://www.w3.org/2000/svg">
<path id="icon" d="M8.88889 7.64444L11.1111 9.86667C11.2741 10.0296 11.3556 10.237 11.3556 10.4889C11.3556 10.7407 11.2741 10.9481 11.1111 11.1111C10.9481 11.2741 10.7407 11.3556 10.4889 11.3556C10.237 11.3556 10.0296 11.2741 9.86667 11.1111L7.37778 8.62222C7.28889 8.53333 7.22222 8.43348 7.17778 8.32267C7.13333 8.21185 7.11111 8.09689 7.11111 7.97778V4.44444C7.11111 4.19259 7.19645 3.98133 7.36711 3.81067C7.53778 3.64 7.74874 3.55496 8 3.55556C8.25185 3.55556 8.46311 3.64089 8.63378 3.81156C8.80445 3.98222 8.88948 4.19318 8.88889 4.44444V7.64444ZM8 16C6.20741 16 4.6 15.4702 3.17778 14.4107C1.75556 13.3511 0.800003 11.9698 0.311114 10.2667C0.23704 10 0.263114 9.74815 0.389336 9.51111C0.515558 9.27407 0.711706 9.12593 0.97778 9.06667C1.22963 9.00741 1.45571 9.06311 1.656 9.23378C1.8563 9.40444 1.99319 9.61541 2.06667 9.86667C2.45185 11.1704 3.19645 12.2222 4.30045 13.0222C5.40445 13.8222 6.63763 14.2222 8 14.2222C9.73333 14.2222 11.2039 13.6184 12.4116 12.4107C13.6193 11.203 14.2228 9.73274 14.2222 8C14.2222 6.26667 13.6184 4.79615 12.4107 3.58844C11.203 2.38074 9.73274 1.77718 8 1.77778C6.97778 1.77778 6.02222 2.01481 5.13333 2.48889C4.24445 2.96296 3.4963 3.61481 2.88889 4.44444H4.44445C4.6963 4.44444 4.90756 4.52978 5.07822 4.70044C5.24889 4.87111 5.33393 5.08207 5.33333 5.33333C5.33333 5.58518 5.248 5.79644 5.07733 5.96711C4.90667 6.13778 4.6957 6.22281 4.44445 6.22222H0.888892C0.63704 6.22222 0.425781 6.13689 0.255114 5.96622C0.0844474 5.79555 -0.000589517 5.58459 3.07574e-06 5.33333V1.77778C3.07574e-06 1.52593 0.0853365 1.31467 0.256003 1.144C0.42667 0.973333 0.637632 0.888296 0.888892 0.888889C1.14074 0.888889 1.352 0.974222 1.52267 1.14489C1.69334 1.31556 1.77837 1.52652 1.77778 1.77778V2.97778C2.53334 2.02963 3.45571 1.2963 4.54489 0.777778C5.63408 0.259259 6.78578 0 8 0C9.11111 0 10.152 0.211259 11.1227 0.633778C12.0933 1.0563 12.9378 1.62637 13.656 2.344C14.3742 3.06281 14.9446 3.90726 15.3671 4.87733C15.7896 5.84741 16.0006 6.8883 16 8C16 9.11111 15.7887 10.152 15.3662 11.1227C14.9437 12.0933 14.3736 12.9378 13.656 13.656C12.9372 14.3742 12.0927 14.9446 11.1227 15.3671C10.1526 15.7896 9.1117 16.0006 8 16Z" fill="white"/>
</svg>
