<svg xmlns="http://www.w3.org/2000/svg" viewBox="0 0 24 24">
  <g>
    <g>
      <path
        d="M7.96,11.08H3.12c-1.72,0-3.12-1.4-3.12-3.12V3.12C0,1.4,1.4,0,3.12,0H7.96c1.72,0,3.12,1.4,3.12,3.12V7.96c0,1.72-1.4,3.12-3.12,3.12ZM3.12,3c-.06,0-.12,.05-.12,.12V7.96c0,.06,.05,.12,.12,.12H7.96c.06,0,.12-.05,.12-.12V3.12c0-.06-.05-.12-.12-.12H3.12Z"
      />
      <path
        d="M20.88,11.08h-4.85c-1.72,0-3.12-1.4-3.12-3.12V3.12c0-1.72,1.4-3.12,3.12-3.12h4.85c1.72,0,3.12,1.4,3.12,3.12V7.96c0,1.72-1.4,3.12-3.12,3.12ZM16.04,3c-.06,0-.12,.05-.12,.12V7.96c0,.06,.05,.12,.12,.12h4.85c.06,0,.12-.05,.12-.12V3.12c0-.06-.05-.12-.12-.12h-4.85Z"
      />
      <path
        d="M7.96,24H3.12c-1.72,0-3.12-1.4-3.12-3.12v-4.85c0-1.72,1.4-3.12,3.12-3.12H7.96c1.72,0,3.12,1.4,3.12,3.12v4.85c0,1.72-1.4,3.12-3.12,3.12ZM3.12,15.92c-.06,0-.12,.05-.12,.12v4.85c0,.06,.05,.12,.12,.12H7.96c.06,0,.12-.05,.12-.12v-4.85c0-.06-.05-.12-.12-.12H3.12Z"
      />
      <path
        d="M20.88,24h-4.85c-1.72,0-3.12-1.4-3.12-3.12v-4.85c0-1.72,1.4-3.12,3.12-3.12h4.85c1.72,0,3.12,1.4,3.12,3.12v4.85c0,1.72-1.4,3.12-3.12,3.12Zm-4.85-8.08c-.06,0-.12,.05-.12,.12v4.85c0,.06,.05,.12,.12,.12h4.85c.06,0,.12-.05,.12-.12v-4.85c0-.06-.05-.12-.12-.12h-4.85Z"
      />
    </g>
  </g>
</svg>